<svg width="167" height="37" viewBox="0 0 167 37" fill="none" xmlns="http://www.w3.org/2000/svg">
<path d="M7.16818 30H0.690909L7.98864 7.89091H16.1932L23.4909 30H17.0136L12.1773 13.9795H12.0045L7.16818 30ZM5.95909 21.2773H18.1364V25.7682H5.95909V21.2773ZM25.6203 30V7.89091H35.1635C36.8044 7.89091 38.2402 8.18958 39.4709 8.78693C40.7016 9.38428 41.6588 10.2443 42.3425 11.367C43.0262 12.4898 43.368 13.8356 43.368 15.4045C43.368 16.9879 43.0154 18.3229 42.3101 19.4097C41.612 20.4964 40.6296 21.3169 39.3629 21.871C38.1035 22.4252 36.6317 22.7023 34.9476 22.7023H29.2476V18.0386H33.7385C34.4438 18.0386 35.0447 17.9523 35.5413 17.7795C36.0451 17.5996 36.4302 17.3153 36.6964 16.9267C36.9699 16.5381 37.1067 16.0307 37.1067 15.4045C37.1067 14.7712 36.9699 14.2566 36.6964 13.8608C36.4302 13.4578 36.0451 13.1627 35.5413 12.9756C35.0447 12.7812 34.4438 12.6841 33.7385 12.6841H31.6226V30H25.6203ZM38.5749 19.8523L44.1021 30H37.5817L32.1839 19.8523H38.5749ZM45.322 12.7273V7.89091H64.5379V12.7273H57.8879V30H51.972V12.7273H45.322ZM73.1473 7.89091H79.0632V23.0477C79.056 24.4871 78.6926 25.7538 77.9729 26.8477C77.2604 27.9345 76.2744 28.7837 75.0149 29.3955C73.7626 30 72.3197 30.3023 70.6859 30.3023C69.2681 30.3023 67.9727 30.0576 66.7996 29.5682C65.6265 29.0716 64.6909 28.2943 63.9928 27.2364C63.2947 26.1712 62.9492 24.7894 62.9564 23.0909H68.9587C68.9803 23.6451 69.0738 24.1129 69.2393 24.4943C69.4121 24.8758 69.6496 25.1636 69.9518 25.358C70.2613 25.5451 70.6356 25.6386 71.0746 25.6386C71.5208 25.6386 71.895 25.5415 72.1973 25.3472C72.5068 25.1528 72.7407 24.865 72.899 24.4835C73.0573 24.0949 73.1401 23.6163 73.1473 23.0477V7.89091ZM94.9919 7.89091H100.994V22.0545C100.994 23.7386 100.591 25.196 99.7851 26.4267C98.9862 27.6502 97.8707 28.5966 96.4385 29.2659C95.0063 29.928 93.3438 30.2591 91.451 30.2591C89.5438 30.2591 87.8741 29.928 86.4419 29.2659C85.0097 28.5966 83.8942 27.6502 83.0953 26.4267C82.3036 25.196 81.9078 23.7386 81.9078 22.0545V7.89091H87.9101V21.5364C87.9101 22.2201 88.0612 22.8318 88.3635 23.3716C88.6658 23.9042 89.0832 24.3216 89.6158 24.6239C90.1555 24.9261 90.7673 25.0773 91.451 25.0773C92.1419 25.0773 92.7536 24.9261 93.2862 24.6239C93.8188 24.3216 94.2362 23.9042 94.5385 23.3716C94.8408 22.8318 94.9919 22.2201 94.9919 21.5364V7.89091ZM122.976 7.89091V30H117.967L109.979 18.3841H109.849V30H103.847V7.89091H108.942L116.801 19.4636H116.974V7.89091H122.976ZM125.816 30V7.89091H131.818V16.8295H132.12L138.77 7.89091H145.766L138.295 17.7364L145.938 30H138.77L133.804 21.7091L131.818 24.3V30H125.816ZM159.168 14.8C159.111 14.0803 158.841 13.5189 158.359 13.1159C157.884 12.7129 157.16 12.5114 156.189 12.5114C155.57 12.5114 155.062 12.5869 154.666 12.7381C154.278 12.882 153.99 13.0799 153.803 13.3318C153.616 13.5837 153.519 13.8716 153.511 14.1955C153.497 14.4617 153.544 14.7028 153.652 14.9188C153.767 15.1275 153.947 15.3182 154.191 15.4909C154.436 15.6564 154.749 15.8076 155.131 15.9443C155.512 16.0811 155.966 16.2034 156.491 16.3114L158.305 16.7C159.528 16.9591 160.575 17.3009 161.446 17.7256C162.317 18.1502 163.029 18.6504 163.584 19.2261C164.138 19.7947 164.544 20.4352 164.803 21.1477C165.07 21.8602 165.206 22.6375 165.214 23.4795C165.206 24.9333 164.843 26.164 164.123 27.1716C163.404 28.1792 162.374 28.9456 161.036 29.471C159.704 29.9964 158.103 30.2591 156.232 30.2591C154.31 30.2591 152.633 29.9748 151.201 29.4063C149.776 28.8377 148.668 27.9633 147.876 26.783C147.092 25.5955 146.696 24.0769 146.689 22.2273H152.389C152.425 22.9038 152.594 23.4723 152.896 23.933C153.198 24.3936 153.623 24.7426 154.17 24.9801C154.724 25.2176 155.383 25.3364 156.145 25.3364C156.786 25.3364 157.322 25.2572 157.754 25.0989C158.186 24.9405 158.513 24.721 158.736 24.4403C158.959 24.1597 159.075 23.8394 159.082 23.4795C159.075 23.1413 158.963 22.8462 158.747 22.5943C158.538 22.3352 158.193 22.1049 157.711 21.9034C157.229 21.6947 156.577 21.5004 155.757 21.3205L153.555 20.8455C151.597 20.4208 150.053 19.7119 148.923 18.7188C147.801 17.7184 147.243 16.3545 147.25 14.6273C147.243 13.2239 147.617 11.9968 148.373 10.946C149.136 9.88807 150.19 9.06401 151.536 8.47386C152.889 7.88371 154.44 7.58864 156.189 7.58864C157.973 7.58864 159.517 7.88731 160.82 8.48466C162.123 9.08201 163.127 9.92405 163.832 11.0108C164.544 12.0903 164.904 13.3534 164.911 14.8H159.168Z" fill="white"/>
</svg>
